# xmcd CD database file
# Copyright (C) 1996 Ti Kan
#
# Track frame offsets:
# 	182
# 	12645
# 	24632
# 	36930
# 	50270
# 	60132
# 	81732
# 	93615
# 	108292
# 	121265
# 	136617
# 	159962
#
# Disc length: 2212 seconds
#
# Revision: 1
# Processed by: cddbd v1.4b41PL1 Copyright (c) Steve Scherf et al.
# Submitted via: DiscPlay 3.4.1
#
DISCID=9208a20c
DTITLE=Jim Yeomans - Dance With Me In Three-Quarter Time
DYEAR=1900
DGENRE=
TTITLE0=Brand New Town
TTITLE1=Something Special
TTITLE2=Head Down The Road
TTITLE3=Dance With Me In Three-Quarter Time
TTITLE4=At The Moon
TTITLE5=I'd Do It Again
TTITLE6=One Love
TTITLE7=Brightest Smile In Town
TTITLE8=You Gotta Say Please
TTITLE9=A Friend Like Mine
TTITLE10=I Wanna Live
TTITLE11=Dance With Me Revisited
EXTD=
EXTT0=
EXTT1=
EXTT2=
EXTT3=
EXTT4=
EXTT5=
EXTT6=
EXTT7=
EXTT8=
EXTT9=
EXTT10=
EXTT11=
PLAYORDER=
